<svg id="svg" version="1.1" xmlns="http://www.w3.org/2000/svg" xmlns:xlink="http://www.w3.org/1999/xlink" width="400"
    height="400" viewBox="0, 0, 400,400" fill='currentColor'>
    <g id="svgg">

        <path id="path0" fill="black"
            d="M184.000 92.059 C 180.810 92.484,177.435 92.932,176.500 93.056 C 175.565 93.179,174.800 93.424,174.800 93.600 C 174.800 93.776,174.035 94.019,173.100 94.141 C 169.737 94.580,168.400 94.894,168.400 95.244 C 168.400 95.440,167.860 95.600,167.200 95.600 C 166.540 95.600,166.000 95.780,166.000 96.000 C 166.000 96.220,165.460 96.400,164.800 96.400 C 164.140 96.400,163.600 96.580,163.600 96.800 C 163.600 97.020,163.060 97.200,162.400 97.200 C 161.740 97.200,161.200 97.380,161.200 97.600 C 161.200 97.820,160.750 98.000,160.200 98.000 C 159.650 98.000,159.200 98.180,159.200 98.400 C 159.200 98.620,158.840 98.800,158.400 98.800 C 157.960 98.800,157.600 98.980,157.600 99.200 C 157.600 99.420,157.161 99.600,156.624 99.600 C 156.087 99.600,155.536 99.780,155.400 100.000 C 155.264 100.220,154.803 100.400,154.376 100.400 C 153.949 100.400,153.600 100.580,153.600 100.800 C 153.600 101.020,153.240 101.200,152.800 101.200 C 152.360 101.200,152.000 101.380,152.000 101.600 C 152.000 101.820,151.640 102.000,151.200 102.000 C 150.760 102.000,150.400 102.180,150.400 102.400 C 150.400 102.620,150.040 102.800,149.600 102.800 C 149.160 102.800,148.800 102.980,148.800 103.200 C 148.800 103.420,148.440 103.600,148.000 103.600 C 147.560 103.600,147.200 103.780,147.200 104.000 C 147.200 104.220,146.964 104.400,146.675 104.400 C 146.387 104.400,145.764 104.760,145.292 105.200 C 144.820 105.640,144.156 106.000,143.817 106.000 C 143.478 106.000,143.200 106.180,143.200 106.400 C 143.200 106.620,142.996 106.800,142.747 106.800 C 142.498 106.800,142.003 107.131,141.647 107.536 C 141.291 107.941,140.505 108.394,139.900 108.544 C 139.295 108.693,138.800 108.992,138.800 109.208 C 138.800 109.423,138.575 109.600,138.300 109.600 C 138.025 109.601,137.277 110.051,136.638 110.600 C 135.999 111.150,135.346 111.600,135.188 111.600 C 135.030 111.600,134.213 112.230,133.372 113.000 C 132.531 113.770,131.687 114.400,131.496 114.400 C 131.305 114.400,130.271 115.300,129.200 116.400 C 128.129 117.500,127.145 118.400,127.013 118.400 C 126.527 118.400,114.400 131.022,114.400 131.528 C 114.400 131.702,113.770 132.531,113.000 133.372 C 112.230 134.213,111.600 135.030,111.600 135.188 C 111.600 135.346,111.150 135.999,110.600 136.638 C 110.051 137.277,109.601 138.025,109.600 138.300 C 109.600 138.575,109.423 138.800,109.208 138.800 C 108.992 138.800,108.693 139.295,108.544 139.900 C 108.394 140.505,107.941 141.291,107.536 141.647 C 107.131 142.003,106.800 142.498,106.800 142.747 C 106.800 142.996,106.620 143.200,106.400 143.200 C 106.180 143.200,106.000 143.560,106.000 144.000 C 106.000 144.440,105.820 144.800,105.600 144.800 C 105.380 144.800,105.200 145.070,105.200 145.400 C 105.200 145.730,105.020 146.000,104.800 146.000 C 104.580 146.000,104.400 146.270,104.400 146.600 C 104.400 146.930,104.220 147.200,104.000 147.200 C 103.780 147.200,103.600 147.560,103.600 148.000 C 103.600 148.440,103.420 148.800,103.200 148.800 C 102.980 148.800,102.800 149.160,102.800 149.600 C 102.800 150.040,102.620 150.400,102.400 150.400 C 102.180 150.400,102.000 150.760,102.000 151.200 C 102.000 151.640,101.820 152.000,101.600 152.000 C 101.380 152.000,101.200 152.360,101.200 152.800 C 101.200 153.240,101.020 153.600,100.800 153.600 C 100.580 153.600,100.400 153.949,100.400 154.376 C 100.400 154.803,100.220 155.264,100.000 155.400 C 99.780 155.536,99.600 156.087,99.600 156.624 C 99.600 157.161,99.420 157.600,99.200 157.600 C 98.980 157.600,98.800 157.960,98.800 158.400 C 98.800 158.840,98.620 159.200,98.400 159.200 C 98.180 159.200,98.000 159.650,98.000 160.200 C 98.000 160.750,97.820 161.200,97.600 161.200 C 97.380 161.200,97.200 161.740,97.200 162.400 C 97.200 163.060,97.020 163.600,96.800 163.600 C 96.580 163.600,96.400 164.140,96.400 164.800 C 96.400 165.460,96.220 166.000,96.000 166.000 C 95.780 166.000,95.600 166.540,95.600 167.200 C 95.600 167.860,95.440 168.400,95.244 168.400 C 95.048 168.400,94.786 168.985,94.663 169.700 C 94.539 170.415,94.327 171.630,94.192 172.400 C 94.056 173.170,93.789 174.160,93.598 174.600 C 93.203 175.508,93.131 175.946,92.033 184.200 C 90.930 192.486,90.932 205.395,92.037 214.000 C 93.204 223.092,93.249 223.365,93.641 223.780 C 93.838 223.989,94.000 224.754,94.000 225.480 C 94.000 226.206,94.180 226.800,94.400 226.800 C 94.620 226.800,94.800 227.419,94.800 228.176 C 94.800 228.933,94.980 229.664,95.200 229.800 C 95.420 229.936,95.600 230.577,95.600 231.224 C 95.600 231.871,95.780 232.400,96.000 232.400 C 96.220 232.400,96.400 232.940,96.400 233.600 C 96.400 234.260,96.580 234.800,96.800 234.800 C 97.020 234.800,97.200 235.340,97.200 236.000 C 97.200 236.660,97.380 237.200,97.600 237.200 C 97.820 237.200,98.000 237.472,98.000 237.805 C 98.000 238.138,98.168 238.723,98.374 239.105 C 98.579 239.487,98.983 240.385,99.271 241.100 C 99.560 241.815,99.931 242.400,100.098 242.400 C 100.264 242.400,100.400 242.839,100.400 243.376 C 100.400 243.913,100.580 244.464,100.800 244.600 C 101.020 244.736,101.200 245.197,101.200 245.624 C 101.200 246.051,101.380 246.400,101.600 246.400 C 101.820 246.400,102.000 246.760,102.000 247.200 C 102.000 247.640,102.180 248.000,102.400 248.000 C 102.620 248.000,102.800 248.360,102.800 248.800 C 102.800 249.240,102.980 249.600,103.200 249.600 C 103.420 249.600,103.600 249.920,103.600 250.312 C 103.600 250.703,103.960 251.283,104.400 251.600 C 104.840 251.917,105.200 252.497,105.200 252.888 C 105.200 253.280,105.380 253.600,105.600 253.600 C 105.820 253.600,106.000 253.878,106.000 254.217 C 106.000 254.556,106.360 255.220,106.800 255.692 C 107.240 256.164,107.600 256.787,107.600 257.075 C 107.600 257.364,107.780 257.600,108.000 257.600 C 108.220 257.600,108.400 257.842,108.400 258.138 C 108.400 258.434,108.850 259.199,109.400 259.838 C 109.949 260.477,110.399 261.185,110.400 261.412 C 110.400 261.638,110.760 262.083,111.200 262.400 C 111.640 262.717,112.000 263.225,112.000 263.528 C 112.000 263.831,112.510 264.556,113.133 265.140 C 113.757 265.723,114.481 266.600,114.742 267.089 C 115.748 268.974,129.859 283.200,130.722 283.200 C 130.892 283.200,131.828 283.920,132.800 284.800 C 133.772 285.680,134.760 286.400,134.996 286.400 C 135.231 286.400,135.683 286.760,136.000 287.200 C 136.317 287.640,136.773 288.000,137.013 288.000 C 137.253 288.000,137.806 288.315,138.242 288.700 C 139.261 289.601,141.103 290.732,142.500 291.316 C 143.105 291.569,143.600 291.916,143.600 292.088 C 143.600 292.259,143.870 292.400,144.200 292.400 C 144.530 292.400,144.800 292.580,144.800 292.800 C 144.800 293.020,145.160 293.200,145.600 293.200 C 146.040 293.200,146.400 293.380,146.400 293.600 C 146.400 293.820,146.760 294.000,147.200 294.000 C 147.640 294.000,148.000 294.159,148.000 294.353 C 148.000 294.548,148.315 294.810,148.700 294.936 C 149.085 295.062,150.170 295.623,151.111 296.182 C 152.052 296.742,153.177 297.200,153.611 297.200 C 154.045 297.200,154.400 297.380,154.400 297.600 C 154.400 297.820,154.760 298.000,155.200 298.000 C 155.640 298.000,156.000 298.180,156.000 298.400 C 156.000 298.620,156.360 298.800,156.800 298.800 C 157.240 298.800,157.600 298.980,157.600 299.200 C 157.600 299.420,157.962 299.600,158.405 299.600 C 158.848 299.600,159.523 299.759,159.905 299.953 C 160.287 300.148,161.140 300.529,161.800 300.800 C 162.460 301.071,163.313 301.452,163.695 301.647 C 164.077 301.841,164.741 302.000,165.171 302.000 C 165.601 302.000,166.064 302.180,166.200 302.400 C 166.336 302.620,167.067 302.800,167.824 302.800 C 168.581 302.800,169.200 302.980,169.200 303.200 C 169.200 303.420,169.729 303.600,170.376 303.600 C 171.023 303.600,171.652 303.761,171.774 303.958 C 171.982 304.294,172.701 304.446,176.900 305.041 C 177.835 305.174,178.771 305.444,178.980 305.641 C 179.189 305.838,180.368 306.000,181.600 306.000 C 182.832 306.000,184.011 306.164,184.220 306.364 C 185.458 307.551,212.971 307.559,214.180 306.373 C 214.389 306.168,215.503 306.000,216.656 306.000 C 217.809 306.000,218.864 305.820,219.000 305.600 C 219.136 305.380,220.036 305.200,221.000 305.200 C 221.964 305.200,222.864 305.020,223.000 304.800 C 223.136 304.580,223.946 304.400,224.800 304.400 C 225.654 304.400,226.464 304.220,226.600 304.000 C 226.736 303.780,227.377 303.600,228.024 303.600 C 228.671 303.600,229.200 303.420,229.200 303.200 C 229.200 302.980,229.729 302.800,230.376 302.800 C 231.023 302.800,231.664 302.620,231.800 302.400 C 231.936 302.180,232.476 302.000,233.000 302.000 C 233.524 302.000,234.064 301.820,234.200 301.600 C 234.336 301.380,234.876 301.200,235.400 301.200 C 235.924 301.200,236.464 301.020,236.600 300.800 C 236.736 300.580,237.287 300.400,237.824 300.400 C 238.361 300.400,238.800 300.220,238.800 300.000 C 238.800 299.780,239.149 299.600,239.576 299.600 C 240.003 299.600,240.464 299.420,240.600 299.200 C 240.736 298.980,241.197 298.800,241.624 298.800 C 242.051 298.800,242.400 298.620,242.400 298.400 C 242.400 298.180,242.760 298.000,243.200 298.000 C 243.640 298.000,244.000 297.820,244.000 297.600 C 244.000 297.380,244.360 297.200,244.800 297.200 C 245.240 297.200,245.600 297.020,245.600 296.800 C 245.600 296.580,245.960 296.400,246.400 296.400 C 246.840 296.400,247.200 296.220,247.200 296.000 C 247.200 295.780,247.560 295.600,248.000 295.600 C 248.440 295.600,248.800 295.420,248.800 295.200 C 248.800 294.980,249.160 294.800,249.600 294.800 C 250.040 294.800,250.400 294.620,250.400 294.400 C 250.400 294.180,250.760 294.000,251.200 294.000 C 251.640 294.000,252.000 293.820,252.000 293.600 C 252.000 293.380,252.360 293.200,252.800 293.200 C 253.240 293.200,253.600 293.020,253.600 292.800 C 253.600 292.580,253.870 292.400,254.200 292.400 C 254.530 292.400,254.800 292.259,254.800 292.088 C 254.800 291.916,255.295 291.569,255.900 291.316 C 257.482 290.655,259.296 289.510,260.046 288.700 C 260.402 288.315,260.853 288.000,261.047 287.999 C 261.241 287.999,262.030 287.459,262.800 286.800 C 263.570 286.141,264.353 285.601,264.540 285.601 C 264.726 285.600,265.383 285.060,266.000 284.400 C 266.617 283.740,267.321 283.200,267.566 283.200 C 268.147 283.200,283.200 268.147,283.200 267.566 C 283.200 267.321,283.740 266.617,284.400 266.000 C 285.060 265.383,285.600 264.726,285.601 264.540 C 285.601 264.353,286.141 263.570,286.800 262.800 C 287.459 262.030,287.999 261.241,287.999 261.047 C 288.000 260.853,288.315 260.402,288.700 260.046 C 289.488 259.316,290.430 257.804,291.656 255.300 C 292.114 254.365,292.648 253.600,292.844 253.600 C 293.040 253.600,293.200 253.240,293.200 252.800 C 293.200 252.360,293.380 252.000,293.600 252.000 C 293.820 252.000,294.000 251.640,294.000 251.200 C 294.000 250.760,294.180 250.400,294.400 250.400 C 294.620 250.400,294.800 250.040,294.800 249.600 C 294.800 249.160,294.980 248.800,295.200 248.800 C 295.420 248.800,295.600 248.440,295.600 248.000 C 295.600 247.560,295.780 247.200,296.000 247.200 C 296.220 247.200,296.400 246.840,296.400 246.400 C 296.400 245.960,296.580 245.600,296.800 245.600 C 297.020 245.600,297.200 245.240,297.200 244.800 C 297.200 244.360,297.380 244.000,297.600 244.000 C 297.820 244.000,298.000 243.640,298.000 243.200 C 298.000 242.760,298.180 242.400,298.400 242.400 C 298.620 242.400,298.800 242.051,298.800 241.624 C 298.800 241.197,298.980 240.736,299.200 240.600 C 299.420 240.464,299.600 240.003,299.600 239.576 C 299.600 239.149,299.780 238.800,300.000 238.800 C 300.220 238.800,300.400 238.361,300.400 237.824 C 300.400 237.287,300.580 236.736,300.800 236.600 C 301.020 236.464,301.200 235.943,301.200 235.443 C 301.200 234.943,301.323 234.410,301.474 234.259 C 301.918 233.815,302.787 231.076,302.794 230.100 C 302.797 229.605,302.960 229.200,303.156 229.200 C 303.491 229.200,303.717 228.278,304.258 224.697 C 304.382 223.871,304.645 223.095,304.842 222.974 C 305.039 222.852,305.200 221.964,305.200 221.000 C 305.200 220.036,305.380 219.136,305.600 219.000 C 305.820 218.864,306.000 217.809,306.000 216.656 C 306.000 215.503,306.168 214.389,306.373 214.180 C 307.559 212.971,307.551 185.458,306.364 184.220 C 306.164 184.011,306.000 182.832,306.000 181.600 C 306.000 180.368,305.838 179.189,305.641 178.980 C 305.444 178.771,305.174 177.835,305.041 176.900 C 304.446 172.701,304.294 171.982,303.958 171.774 C 303.761 171.652,303.600 171.023,303.600 170.376 C 303.600 169.729,303.420 169.200,303.200 169.200 C 302.980 169.200,302.800 168.581,302.800 167.824 C 302.800 167.067,302.620 166.336,302.400 166.200 C 302.180 166.064,302.000 165.524,302.000 165.000 C 302.000 164.476,301.820 163.936,301.600 163.800 C 301.380 163.664,301.200 163.113,301.200 162.576 C 301.200 162.039,301.020 161.600,300.800 161.600 C 300.580 161.600,300.400 161.251,300.400 160.824 C 300.400 160.397,300.220 159.936,300.000 159.800 C 299.780 159.664,299.600 159.113,299.600 158.576 C 299.600 158.039,299.420 157.600,299.200 157.600 C 298.980 157.600,298.800 157.240,298.800 156.800 C 298.800 156.360,298.620 156.000,298.400 156.000 C 298.180 156.000,298.000 155.640,298.000 155.200 C 298.000 154.760,297.820 154.400,297.600 154.400 C 297.380 154.400,297.200 154.057,297.200 153.638 C 297.200 152.934,295.700 149.659,295.168 149.200 C 295.040 149.090,294.681 148.415,294.370 147.700 C 294.059 146.985,293.669 146.400,293.502 146.400 C 293.336 146.400,293.200 146.040,293.200 145.600 C 293.200 145.160,293.020 144.800,292.800 144.800 C 292.580 144.800,292.400 144.530,292.400 144.200 C 292.400 143.870,292.259 143.600,292.088 143.600 C 291.916 143.600,291.569 143.105,291.316 142.500 C 290.732 141.103,289.601 139.261,288.700 138.242 C 288.315 137.806,288.000 137.253,288.000 137.013 C 288.000 136.773,287.640 136.317,287.200 136.000 C 286.760 135.683,286.400 135.220,286.400 134.971 C 286.400 134.722,285.860 133.954,285.200 133.263 C 284.540 132.572,284.000 131.826,284.000 131.604 C 284.000 131.382,283.820 131.200,283.600 131.200 C 283.380 131.200,283.200 131.008,283.200 130.774 C 283.200 130.540,282.300 129.471,281.200 128.400 C 280.100 127.329,279.200 126.343,279.200 126.209 C 279.200 125.656,267.274 114.400,266.688 114.400 C 266.486 114.400,265.817 113.860,265.200 113.200 C 264.583 112.540,263.873 112.000,263.621 112.000 C 263.370 112.000,262.714 111.550,262.164 111.000 C 261.614 110.450,261.019 110.000,260.843 110.000 C 260.667 110.000,260.107 109.640,259.600 109.200 C 259.093 108.760,258.435 108.400,258.139 108.400 C 257.842 108.400,257.600 108.220,257.600 108.000 C 257.600 107.780,257.364 107.600,257.075 107.600 C 256.787 107.600,256.164 107.240,255.692 106.800 C 255.220 106.360,254.556 106.000,254.217 106.000 C 253.878 106.000,253.600 105.820,253.600 105.600 C 253.600 105.380,253.280 105.200,252.888 105.200 C 252.497 105.200,251.917 104.840,251.600 104.400 C 251.283 103.960,250.703 103.600,250.312 103.600 C 249.920 103.600,249.600 103.420,249.600 103.200 C 249.600 102.980,249.240 102.800,248.800 102.800 C 248.360 102.800,248.000 102.620,248.000 102.400 C 248.000 102.180,247.640 102.000,247.200 102.000 C 246.760 102.000,246.400 101.820,246.400 101.600 C 246.400 101.380,246.051 101.200,245.624 101.200 C 245.197 101.200,244.736 101.020,244.600 100.800 C 244.464 100.580,243.913 100.400,243.376 100.400 C 242.839 100.400,242.400 100.264,242.400 100.098 C 242.400 99.931,241.815 99.560,241.100 99.271 C 240.385 98.983,239.487 98.579,239.105 98.374 C 238.723 98.168,238.138 98.000,237.805 98.000 C 237.472 98.000,237.200 97.820,237.200 97.600 C 237.200 97.380,236.660 97.200,236.000 97.200 C 235.340 97.200,234.800 97.020,234.800 96.800 C 234.800 96.580,234.260 96.400,233.600 96.400 C 232.940 96.400,232.400 96.220,232.400 96.000 C 232.400 95.780,231.860 95.600,231.200 95.600 C 230.540 95.600,230.000 95.420,230.000 95.200 C 230.000 94.980,229.280 94.800,228.400 94.800 C 227.520 94.800,226.800 94.620,226.800 94.400 C 226.800 94.180,226.206 94.000,225.480 94.000 C 224.754 94.000,223.989 93.838,223.780 93.641 C 223.365 93.249,223.092 93.204,214.000 92.037 C 205.586 90.956,192.218 90.966,184.000 92.059 M203.600 144.400 C 203.600 144.629,204.800 144.800,206.400 144.800 C 208.000 144.800,209.200 144.971,209.200 145.200 C 209.200 145.420,209.920 145.600,210.800 145.600 C 211.680 145.600,212.400 145.780,212.400 146.000 C 212.400 146.220,213.030 146.400,213.800 146.400 C 214.570 146.400,215.200 146.580,215.200 146.800 C 215.200 147.020,215.740 147.200,216.400 147.200 C 217.060 147.200,217.600 147.380,217.600 147.600 C 217.600 147.820,217.949 148.000,218.376 148.000 C 218.803 148.000,219.264 148.180,219.400 148.400 C 219.536 148.620,220.087 148.800,220.624 148.800 C 221.161 148.800,221.600 148.980,221.600 149.200 C 221.600 149.420,221.960 149.600,222.400 149.600 C 222.840 149.600,223.200 149.780,223.200 150.000 C 223.200 150.220,223.560 150.400,224.000 150.400 C 224.440 150.400,224.800 150.580,224.800 150.800 C 224.800 151.020,225.036 151.200,225.325 151.200 C 225.613 151.200,226.236 151.560,226.708 152.000 C 227.180 152.440,227.754 152.800,227.983 152.800 C 228.212 152.800,228.400 152.980,228.400 153.200 C 228.400 153.420,228.625 153.600,228.900 153.601 C 229.175 153.601,230.030 154.141,230.800 154.800 C 231.570 155.459,232.329 155.999,232.487 155.999 C 233.349 156.002,241.632 164.282,242.591 166.100 C 243.026 166.925,243.499 167.600,243.642 167.600 C 243.786 167.600,244.127 168.140,244.400 168.800 C 244.673 169.460,245.055 170.000,245.249 170.000 C 245.442 170.000,245.600 170.193,245.600 170.428 C 245.600 170.663,246.140 171.641,246.800 172.600 C 247.460 173.559,248.000 174.537,248.000 174.772 C 248.000 175.007,248.147 175.200,248.328 175.200 C 248.508 175.200,248.900 176.100,249.200 177.200 C 249.500 178.300,249.853 179.200,249.985 179.200 C 250.117 179.200,250.457 180.055,250.739 181.100 C 251.022 182.145,251.421 183.313,251.627 183.695 C 251.832 184.077,252.000 184.842,252.000 185.395 C 252.000 185.948,252.180 186.400,252.400 186.400 C 252.620 186.400,252.800 187.199,252.800 188.176 C 252.800 189.153,252.980 190.064,253.200 190.200 C 253.421 190.337,253.600 192.137,253.600 194.224 C 253.600 196.475,253.762 198.000,254.000 198.000 C 254.220 198.000,254.400 198.439,254.400 198.976 C 254.400 199.513,254.220 200.064,254.000 200.200 C 253.777 200.338,253.600 202.204,253.600 204.424 C 253.600 206.808,253.440 208.400,253.200 208.400 C 252.980 208.400,252.800 209.109,252.800 209.976 C 252.800 210.843,252.620 211.664,252.400 211.800 C 252.180 211.936,252.000 212.577,252.000 213.224 C 252.000 213.871,251.820 214.400,251.600 214.400 C 251.380 214.400,251.200 214.940,251.200 215.600 C 251.200 216.260,251.020 216.800,250.800 216.800 C 250.580 216.800,250.400 217.340,250.400 218.000 C 250.400 218.660,250.220 219.200,250.000 219.200 C 249.780 219.200,249.600 219.560,249.600 220.000 C 249.600 220.440,249.420 220.800,249.200 220.800 C 248.980 220.800,248.800 221.053,248.800 221.362 C 248.800 221.880,247.261 225.140,246.799 225.600 C 246.689 225.710,246.329 226.340,245.999 227.000 C 245.670 227.660,245.085 228.549,244.700 228.975 C 244.315 229.402,244.000 229.905,244.000 230.093 C 244.000 230.281,243.550 230.920,243.000 231.513 C 242.450 232.107,242.000 232.812,242.000 233.082 C 242.000 233.722,233.722 242.000,233.082 242.000 C 232.812 242.000,232.107 242.450,231.513 243.000 C 230.920 243.550,230.281 244.000,230.093 244.000 C 229.905 244.000,229.402 244.315,228.975 244.700 C 228.549 245.085,227.660 245.670,227.000 245.999 C 226.340 246.329,225.710 246.689,225.600 246.799 C 225.073 247.328,222.016 248.800,221.446 248.800 C 221.090 248.800,220.800 248.980,220.800 249.200 C 220.800 249.420,220.440 249.600,220.000 249.600 C 219.560 249.600,219.200 249.780,219.200 250.000 C 219.200 250.220,218.660 250.400,218.000 250.400 C 217.340 250.400,216.800 250.580,216.800 250.800 C 216.800 251.020,216.260 251.200,215.600 251.200 C 214.940 251.200,214.400 251.380,214.400 251.600 C 214.400 251.820,213.871 252.000,213.224 252.000 C 212.577 252.000,211.936 252.180,211.800 252.400 C 211.664 252.620,210.843 252.800,209.976 252.800 C 209.109 252.800,208.400 252.980,208.400 253.200 C 208.400 253.438,206.875 253.600,204.624 253.600 C 202.537 253.600,200.737 253.779,200.600 254.000 C 200.464 254.220,199.643 254.400,198.776 254.400 C 197.909 254.400,197.200 254.220,197.200 254.000 C 197.200 253.765,195.808 253.600,193.824 253.600 C 191.967 253.600,190.336 253.420,190.200 253.200 C 190.064 252.980,189.153 252.800,188.176 252.800 C 187.199 252.800,186.400 252.620,186.400 252.400 C 186.400 252.180,185.871 252.000,185.224 252.000 C 184.577 252.000,183.936 251.820,183.800 251.600 C 183.664 251.380,183.124 251.200,182.600 251.200 C 182.076 251.200,181.536 251.020,181.400 250.800 C 181.264 250.580,180.713 250.400,180.176 250.400 C 179.639 250.400,179.200 250.220,179.200 250.000 C 179.200 249.780,178.851 249.600,178.424 249.600 C 177.997 249.600,177.536 249.420,177.400 249.200 C 177.264 248.980,176.713 248.800,176.176 248.800 C 175.639 248.800,175.200 248.620,175.200 248.400 C 175.200 248.180,175.007 248.000,174.772 248.000 C 174.537 248.000,173.559 247.460,172.600 246.800 C 171.641 246.140,170.663 245.600,170.428 245.600 C 170.193 245.600,170.000 245.432,170.000 245.227 C 170.000 245.022,169.661 244.746,169.248 244.615 C 168.584 244.404,167.981 243.979,166.117 242.407 C 165.851 242.183,165.438 242.000,165.200 242.000 C 164.463 242.000,158.034 235.288,156.005 232.400 C 155.464 231.630,154.702 230.651,154.311 230.225 C 153.920 229.798,153.600 229.213,153.600 228.925 C 153.600 228.636,153.420 228.400,153.200 228.400 C 152.980 228.400,152.800 228.130,152.800 227.800 C 152.800 227.470,152.620 227.200,152.400 227.200 C 152.180 227.200,152.000 226.930,152.000 226.600 C 152.000 226.270,151.820 226.000,151.600 226.000 C 151.380 226.000,151.200 225.730,151.200 225.400 C 151.200 225.070,151.020 224.800,150.800 224.800 C 150.580 224.800,150.400 224.440,150.400 224.000 C 150.400 223.560,150.220 223.200,150.000 223.200 C 149.780 223.200,149.600 222.840,149.600 222.400 C 149.600 221.960,149.420 221.600,149.200 221.600 C 148.980 221.600,148.800 221.060,148.800 220.400 C 148.800 219.740,148.620 219.200,148.400 219.200 C 148.180 219.200,148.000 218.840,148.000 218.400 C 148.000 217.960,147.820 217.600,147.600 217.600 C 147.380 217.600,147.200 217.060,147.200 216.400 C 147.200 215.740,147.020 215.200,146.800 215.200 C 146.580 215.200,146.400 214.570,146.400 213.800 C 146.400 213.030,146.220 212.400,146.000 212.400 C 145.780 212.400,145.600 211.680,145.600 210.800 C 145.600 209.920,145.420 209.200,145.200 209.200 C 144.969 209.200,144.800 207.941,144.800 206.224 C 144.800 204.587,144.620 203.136,144.400 203.000 C 144.177 202.862,144.000 200.996,144.000 198.776 C 144.000 196.392,144.160 194.800,144.400 194.800 C 144.625 194.800,144.800 193.675,144.800 192.224 C 144.800 190.807,144.980 189.536,145.200 189.400 C 145.420 189.264,145.600 188.353,145.600 187.376 C 145.600 186.399,145.780 185.600,146.000 185.600 C 146.220 185.600,146.400 185.060,146.400 184.400 C 146.400 183.740,146.580 183.200,146.800 183.200 C 147.020 183.200,147.200 182.660,147.200 182.000 C 147.200 181.340,147.380 180.800,147.600 180.800 C 147.820 180.800,148.000 180.260,148.000 179.600 C 148.000 178.940,148.180 178.400,148.400 178.400 C 148.620 178.400,148.800 178.040,148.800 177.600 C 148.800 177.160,148.980 176.800,149.200 176.800 C 149.420 176.800,149.600 176.440,149.600 176.000 C 149.600 175.560,149.746 175.200,149.925 175.200 C 150.104 175.200,150.498 174.570,150.800 173.800 C 151.102 173.030,151.496 172.400,151.675 172.400 C 151.854 172.400,152.000 172.080,152.000 171.688 C 152.000 171.297,152.360 170.717,152.800 170.400 C 153.240 170.083,153.600 169.543,153.600 169.200 C 153.600 168.857,153.960 168.317,154.400 168.000 C 154.840 167.683,155.200 167.236,155.200 167.008 C 155.200 165.817,165.817 155.200,167.008 155.200 C 167.236 155.200,167.683 154.840,168.000 154.400 C 168.317 153.960,168.857 153.600,169.200 153.600 C 169.543 153.600,170.083 153.240,170.400 152.800 C 170.717 152.360,171.297 152.000,171.688 152.000 C 172.080 152.000,172.400 151.854,172.400 151.675 C 172.400 151.496,173.030 151.102,173.800 150.800 C 174.570 150.498,175.200 150.104,175.200 149.925 C 175.200 149.746,175.560 149.600,176.000 149.600 C 176.440 149.600,176.800 149.420,176.800 149.200 C 176.800 148.980,177.160 148.800,177.600 148.800 C 178.040 148.800,178.400 148.620,178.400 148.400 C 178.400 148.180,178.940 148.000,179.600 148.000 C 180.260 148.000,180.800 147.820,180.800 147.600 C 180.800 147.380,181.340 147.200,182.000 147.200 C 182.660 147.200,183.200 147.020,183.200 146.800 C 183.200 146.580,183.740 146.400,184.400 146.400 C 185.060 146.400,185.600 146.220,185.600 146.000 C 185.600 145.780,186.399 145.600,187.376 145.600 C 188.353 145.600,189.264 145.420,189.400 145.200 C 189.536 144.980,190.807 144.800,192.224 144.800 C 193.675 144.800,194.800 144.625,194.800 144.400 C 194.800 144.158,196.533 144.000,199.200 144.000 C 201.867 144.000,203.600 144.158,203.600 144.400 "
            stroke="none" fill-rule="evenodd"></path>
        <path id="path1" fill="#0095ff"
            d="M207.600 53.950 L 207.600 74.700 208.850 74.950 C 209.538 75.088,211.428 75.200,213.050 75.200 C 214.750 75.200,216.000 75.369,216.000 75.600 C 216.000 75.822,217.067 76.000,218.400 76.000 C 219.733 76.000,220.800 76.178,220.800 76.400 C 220.800 76.620,221.700 76.800,222.800 76.800 C 223.900 76.800,224.800 76.980,224.800 77.200 C 224.800 77.420,225.509 77.600,226.376 77.600 C 227.243 77.600,228.064 77.780,228.200 78.000 C 228.336 78.220,229.157 78.400,230.024 78.400 C 230.891 78.400,231.600 78.580,231.600 78.800 C 231.600 79.020,232.140 79.200,232.800 79.200 C 233.460 79.200,234.000 79.380,234.000 79.600 C 234.000 79.820,234.540 80.000,235.200 80.000 C 235.860 80.000,236.400 80.180,236.400 80.400 C 236.400 80.620,236.940 80.800,237.600 80.800 C 238.260 80.800,238.800 80.980,238.800 81.200 C 238.800 81.420,239.340 81.600,240.000 81.600 C 240.660 81.600,241.200 81.780,241.200 82.000 C 241.200 82.220,241.650 82.400,242.200 82.400 C 242.750 82.400,243.200 82.580,243.200 82.800 C 243.200 83.020,243.549 83.200,243.976 83.200 C 244.403 83.200,244.864 83.380,245.000 83.600 C 245.136 83.820,245.687 84.000,246.224 84.000 C 246.761 84.000,247.200 84.180,247.200 84.400 C 247.200 84.620,247.560 84.800,248.000 84.800 C 248.440 84.800,248.800 84.980,248.800 85.200 C 248.800 85.420,249.072 85.600,249.405 85.600 C 249.738 85.600,250.323 85.770,250.705 85.979 C 251.087 86.187,252.300 86.789,253.400 87.317 C 257.484 89.278,263.404 92.510,263.533 92.849 C 263.607 93.042,263.972 93.200,264.345 93.200 C 264.718 93.200,265.283 93.560,265.600 94.000 C 265.917 94.440,266.457 94.800,266.800 94.800 C 267.143 94.800,267.683 95.160,268.000 95.600 C 268.317 96.040,268.857 96.400,269.200 96.400 C 269.543 96.400,270.083 96.760,270.400 97.200 C 270.717 97.640,271.225 98.000,271.528 98.000 C 271.831 98.000,272.583 98.540,273.200 99.200 C 273.817 99.860,274.474 100.401,274.660 100.403 C 274.847 100.404,275.720 101.116,276.600 101.983 C 277.480 102.851,278.327 103.570,278.481 103.580 C 279.412 103.645,294.800 119.049,294.800 119.916 C 294.800 120.074,295.520 120.969,296.400 121.903 C 297.280 122.837,298.000 123.709,298.000 123.840 C 298.000 123.972,298.540 124.583,299.200 125.200 C 299.860 125.817,300.400 126.569,300.400 126.872 C 300.400 127.175,300.760 127.683,301.200 128.000 C 301.640 128.317,302.000 128.857,302.000 129.200 C 302.000 129.543,302.360 130.083,302.800 130.400 C 303.240 130.717,303.600 131.257,303.600 131.600 C 303.600 131.943,303.960 132.483,304.400 132.800 C 304.840 133.117,305.200 133.697,305.200 134.088 C 305.200 134.480,305.380 134.800,305.600 134.800 C 305.820 134.800,306.000 135.036,306.000 135.325 C 306.000 135.613,306.360 136.236,306.800 136.708 C 307.240 137.180,307.600 137.844,307.600 138.183 C 307.600 138.522,307.780 138.800,308.000 138.800 C 308.220 138.800,308.400 138.976,308.400 139.192 C 308.400 139.407,309.210 141.250,310.200 143.287 C 311.190 145.325,312.000 147.218,312.000 147.496 C 312.000 147.773,312.180 148.000,312.400 148.000 C 312.620 148.000,312.800 148.360,312.800 148.800 C 312.800 149.240,312.980 149.600,313.200 149.600 C 313.420 149.600,313.600 149.872,313.600 150.205 C 313.600 150.538,313.808 151.213,314.062 151.705 C 315.033 153.582,315.200 154.007,315.200 154.595 C 315.200 154.928,315.380 155.200,315.600 155.200 C 315.820 155.200,316.000 155.639,316.000 156.176 C 316.000 156.713,316.180 157.264,316.400 157.400 C 316.620 157.536,316.800 158.087,316.800 158.624 C 316.800 159.161,316.980 159.600,317.200 159.600 C 317.420 159.600,317.600 160.140,317.600 160.800 C 317.600 161.460,317.780 162.000,318.000 162.000 C 318.220 162.000,318.400 162.540,318.400 163.200 C 318.400 163.860,318.580 164.400,318.800 164.400 C 319.020 164.400,319.200 165.120,319.200 166.000 C 319.200 166.880,319.380 167.600,319.600 167.600 C 319.820 167.600,320.000 168.219,320.000 168.976 C 320.000 169.733,320.180 170.464,320.400 170.600 C 320.620 170.736,320.800 171.456,320.800 172.200 C 320.800 172.944,320.980 173.664,321.200 173.800 C 321.420 173.936,321.600 175.027,321.600 176.224 C 321.600 177.421,321.780 178.400,322.000 178.400 C 322.222 178.400,322.400 179.467,322.400 180.800 C 322.400 182.133,322.578 183.200,322.800 183.200 C 323.039 183.200,323.200 184.733,323.200 187.000 C 323.200 189.267,323.361 190.800,323.600 190.800 C 323.854 190.800,324.000 193.792,324.000 198.976 C 324.000 203.996,323.846 207.248,323.600 207.400 C 323.379 207.537,323.200 209.337,323.200 211.424 C 323.200 213.675,323.038 215.200,322.800 215.200 C 322.578 215.200,322.400 216.267,322.400 217.600 C 322.400 218.933,322.222 220.000,322.000 220.000 C 321.780 220.000,321.600 220.889,321.600 221.976 C 321.600 223.063,321.420 224.064,321.200 224.200 C 320.980 224.336,320.800 225.157,320.800 226.024 C 320.800 226.891,320.620 227.600,320.400 227.600 C 320.180 227.600,320.000 228.320,320.000 229.200 C 320.000 230.080,319.820 230.800,319.600 230.800 C 319.380 230.800,319.200 231.430,319.200 232.200 C 319.200 232.970,319.020 233.600,318.800 233.600 C 318.580 233.600,318.400 234.230,318.400 235.000 C 318.400 235.770,318.220 236.400,318.000 236.400 C 317.780 236.400,317.600 236.940,317.600 237.600 C 317.600 238.260,317.420 238.800,317.200 238.800 C 316.980 238.800,316.800 239.340,316.800 240.000 C 316.800 240.660,316.620 241.200,316.400 241.200 C 316.180 241.200,316.000 241.560,316.000 242.000 C 316.000 242.440,315.820 242.800,315.600 242.800 C 315.380 242.800,315.200 243.155,315.200 243.588 C 315.200 244.021,314.840 245.017,314.400 245.800 C 313.960 246.583,313.600 247.579,313.600 248.012 C 313.600 248.445,313.420 248.800,313.200 248.800 C 312.980 248.800,312.800 249.160,312.800 249.600 C 312.800 250.040,312.620 250.400,312.400 250.400 C 312.180 250.400,312.000 250.760,312.000 251.200 C 312.000 251.640,311.820 252.000,311.600 252.000 C 311.380 252.000,311.244 252.135,311.298 252.300 C 311.352 252.465,310.924 253.590,310.347 254.800 C 309.770 256.010,309.052 257.585,308.752 258.300 C 308.451 259.015,308.102 259.600,307.977 259.600 C 307.852 259.600,307.505 260.222,307.207 260.982 C 306.909 261.742,306.515 262.271,306.332 262.158 C 306.150 262.045,306.000 262.323,306.000 262.776 C 306.000 263.229,305.820 263.600,305.600 263.600 C 305.380 263.600,305.200 263.971,305.200 264.424 C 305.200 264.877,305.020 265.136,304.800 265.000 C 304.580 264.864,304.400 265.033,304.400 265.376 C 304.400 265.719,304.220 266.000,304.000 266.000 C 303.780 266.000,303.600 266.320,303.600 266.712 C 303.600 267.103,303.240 267.683,302.800 268.000 C 302.360 268.317,302.000 268.780,302.000 269.029 C 302.000 269.278,301.505 270.016,300.900 270.668 C 300.295 271.321,299.754 272.071,299.698 272.333 C 299.642 272.596,299.057 273.375,298.398 274.065 C 297.739 274.754,297.200 275.480,297.200 275.678 C 297.200 275.875,296.795 276.451,296.300 276.957 C 294.737 278.555,293.186 280.400,293.404 280.400 C 293.519 280.400,292.531 281.521,291.207 282.890 C 289.883 284.260,288.800 285.610,288.800 285.890 C 288.800 286.171,288.440 286.400,288.000 286.400 C 287.560 286.400,287.200 286.591,287.200 286.824 C 287.200 287.057,287.425 287.116,287.700 286.955 C 287.975 286.794,287.842 287.098,287.404 287.631 C 286.967 288.164,286.773 288.464,286.974 288.297 C 287.554 287.816,315.179 315.586,314.890 316.360 C 314.682 316.914,314.741 316.927,315.325 316.451 C 316.105 315.816,316.243 316.383,315.500 317.169 C 315.089 317.604,315.143 317.623,315.800 317.280 C 316.560 316.883,324.151 309.200,323.783 309.200 C 323.686 309.200,324.146 308.686,324.804 308.057 C 325.462 307.428,326.000 306.784,326.000 306.625 C 326.000 306.467,326.720 305.646,327.600 304.800 C 328.480 303.954,329.200 303.069,329.200 302.831 C 329.200 302.594,329.380 302.400,329.600 302.400 C 329.820 302.400,330.000 302.170,330.000 301.888 C 330.000 301.607,330.360 301.117,330.800 300.800 C 331.240 300.483,331.600 300.028,331.600 299.790 C 331.600 299.551,332.230 298.669,333.000 297.828 C 333.770 296.987,334.400 296.170,334.400 296.012 C 334.400 295.854,334.850 295.201,335.400 294.562 C 335.949 293.923,336.399 293.190,336.400 292.933 C 336.400 292.677,336.547 292.407,336.728 292.333 C 337.166 292.155,340.400 287.345,340.400 286.871 C 340.400 286.666,340.670 286.274,341.000 286.000 C 341.330 285.726,341.600 285.247,341.600 284.934 C 341.600 284.622,341.960 283.980,342.400 283.508 C 342.840 283.036,343.200 282.413,343.200 282.125 C 343.200 281.836,343.380 281.600,343.600 281.600 C 343.820 281.600,344.000 281.240,344.000 280.800 C 344.000 280.360,344.180 280.000,344.400 280.000 C 344.620 280.000,344.800 279.640,344.800 279.200 C 344.800 278.760,344.980 278.400,345.200 278.400 C 345.420 278.400,345.600 278.040,345.600 277.600 C 345.600 277.160,345.780 276.800,346.000 276.800 C 346.220 276.800,346.400 276.440,346.400 276.000 C 346.400 275.560,346.580 275.200,346.800 275.200 C 347.020 275.200,347.200 274.930,347.200 274.600 C 347.200 274.270,347.380 274.000,347.600 274.000 C 347.820 274.000,348.000 273.640,348.000 273.200 C 348.000 272.760,348.180 272.400,348.400 272.400 C 348.620 272.400,348.800 272.040,348.800 271.600 C 348.800 271.160,348.980 270.800,349.200 270.800 C 349.420 270.800,349.600 270.440,349.600 270.000 C 349.600 269.560,349.780 269.200,350.000 269.200 C 350.220 269.200,350.400 268.840,350.400 268.400 C 350.400 267.960,350.580 267.600,350.800 267.600 C 351.020 267.600,351.200 267.328,351.200 266.995 C 351.200 266.662,351.380 266.032,351.600 265.595 C 351.820 265.158,352.180 264.442,352.400 264.005 C 352.620 263.568,352.800 262.938,352.800 262.605 C 352.800 262.272,352.947 262.000,353.128 262.000 C 353.308 262.000,353.700 261.100,354.000 260.000 C 354.300 258.900,354.692 258.000,354.872 258.000 C 355.053 258.000,355.200 257.561,355.200 257.024 C 355.200 256.487,355.380 255.936,355.600 255.800 C 355.820 255.664,356.000 255.124,356.000 254.600 C 356.000 254.076,356.180 253.536,356.400 253.400 C 356.620 253.264,356.800 252.724,356.800 252.200 C 356.800 251.676,356.980 251.136,357.200 251.000 C 357.420 250.864,357.600 250.349,357.600 249.856 C 357.600 249.363,357.779 248.781,357.998 248.562 C 358.216 248.344,358.512 247.048,358.654 245.682 C 358.797 244.317,359.068 243.200,359.257 243.200 C 359.446 243.200,359.600 242.660,359.600 242.000 C 359.600 241.340,359.780 240.800,360.000 240.800 C 360.220 240.800,360.400 240.080,360.400 239.200 C 360.400 238.320,360.580 237.600,360.800 237.600 C 361.020 237.600,361.200 236.790,361.200 235.800 C 361.200 234.810,361.380 234.000,361.600 234.000 C 361.820 234.000,362.000 233.100,362.000 232.000 C 362.000 230.900,362.180 230.000,362.400 230.000 C 362.622 230.000,362.800 228.933,362.800 227.600 C 362.800 226.267,362.978 225.200,363.200 225.200 C 363.425 225.200,363.600 224.075,363.600 222.624 C 363.600 221.207,363.780 219.936,364.000 219.800 C 364.225 219.661,364.400 217.729,364.400 215.376 C 364.400 212.859,364.559 211.200,364.800 211.200 C 365.058 211.200,365.200 206.941,365.200 199.224 C 365.200 191.671,365.052 187.156,364.800 187.000 C 364.577 186.862,364.400 185.004,364.400 182.800 C 364.400 180.596,364.223 178.738,364.000 178.600 C 363.780 178.464,363.600 177.204,363.600 175.800 C 363.600 174.396,363.420 173.136,363.200 173.000 C 362.980 172.864,362.800 171.773,362.800 170.576 C 362.800 169.379,362.620 168.400,362.400 168.400 C 362.180 168.400,362.000 167.500,362.000 166.400 C 362.000 165.300,361.820 164.400,361.600 164.400 C 361.380 164.400,361.200 163.590,361.200 162.600 C 361.200 161.610,361.020 160.800,360.800 160.800 C 360.580 160.800,360.400 160.080,360.400 159.200 C 360.400 158.320,360.220 157.600,360.000 157.600 C 359.780 157.600,359.600 156.880,359.600 156.000 C 359.600 155.120,359.444 154.400,359.254 154.400 C 359.064 154.400,358.795 153.571,358.656 152.558 C 358.337 150.227,356.642 144.845,355.553 142.705 C 355.359 142.323,355.200 141.648,355.200 141.205 C 355.200 140.762,355.020 140.400,354.800 140.400 C 354.580 140.400,354.400 139.961,354.400 139.424 C 354.400 138.887,354.220 138.336,354.000 138.200 C 353.780 138.064,353.600 137.603,353.600 137.176 C 353.600 136.749,353.420 136.400,353.200 136.400 C 352.980 136.400,352.800 135.961,352.800 135.424 C 352.800 134.887,352.620 134.336,352.400 134.200 C 352.180 134.064,352.000 133.603,352.000 133.176 C 352.000 132.749,351.820 132.400,351.600 132.400 C 351.380 132.400,351.200 132.040,351.200 131.600 C 351.200 131.160,351.020 130.800,350.800 130.800 C 350.580 130.800,350.400 130.451,350.400 130.024 C 350.400 129.597,350.220 129.136,350.000 129.000 C 349.780 128.864,349.600 128.403,349.600 127.976 C 349.600 127.549,349.420 127.200,349.200 127.200 C 348.980 127.200,348.800 126.840,348.800 126.400 C 348.800 125.960,348.620 125.600,348.400 125.600 C 348.180 125.600,348.000 125.240,348.000 124.800 C 348.000 124.360,347.820 124.000,347.600 124.000 C 347.380 124.000,347.200 123.640,347.200 123.200 C 347.200 122.760,347.020 122.400,346.800 122.400 C 346.580 122.400,346.400 122.164,346.400 121.875 C 346.400 121.587,346.040 120.964,345.600 120.492 C 345.160 120.020,344.800 119.356,344.800 119.017 C 344.800 118.678,344.620 118.400,344.400 118.400 C 344.180 118.400,344.000 118.040,344.000 117.600 C 344.000 117.160,343.820 116.800,343.600 116.800 C 343.380 116.800,343.200 116.440,343.200 116.000 C 343.200 115.560,343.053 115.200,342.874 115.200 C 342.695 115.200,342.154 114.461,341.672 113.557 C 339.978 110.384,339.394 109.417,338.700 108.637 C 338.315 108.203,338.000 107.653,338.000 107.413 C 338.000 107.173,337.640 106.717,337.200 106.400 C 336.760 106.083,336.400 105.543,336.400 105.200 C 336.400 104.857,336.040 104.317,335.600 104.000 C 335.160 103.683,334.800 103.175,334.800 102.872 C 334.800 102.569,334.260 101.817,333.600 101.200 C 332.940 100.583,332.400 99.863,332.400 99.600 C 332.400 99.337,331.860 98.617,331.200 98.000 C 330.540 97.383,330.000 96.667,330.000 96.408 C 330.000 96.149,329.280 95.246,328.400 94.400 C 327.520 93.554,326.800 92.752,326.800 92.617 C 326.800 92.358,326.018 91.457,323.395 88.692 C 322.512 87.761,321.343 86.370,320.798 85.600 C 319.516 83.788,314.601 78.876,312.800 77.605 C 311.248 76.510,309.134 74.653,308.149 73.519 C 307.518 72.792,306.036 71.600,305.764 71.600 C 305.639 71.600,304.846 70.880,304.000 70.000 C 303.154 69.120,302.295 68.400,302.091 68.400 C 301.886 68.400,301.154 67.860,300.463 67.200 C 299.772 66.540,299.052 66.000,298.863 66.000 C 298.674 66.000,297.954 65.460,297.263 64.800 C 296.572 64.140,295.817 63.600,295.585 63.600 C 295.353 63.600,294.728 63.164,294.195 62.631 C 293.662 62.098,292.860 61.546,292.413 61.404 C 291.966 61.262,291.600 61.017,291.600 60.859 C 291.600 60.701,290.611 60.038,289.401 59.386 C 288.192 58.734,287.202 58.065,287.201 57.900 C 287.201 57.735,286.922 57.600,286.583 57.600 C 286.244 57.600,285.580 57.240,285.108 56.800 C 284.636 56.360,284.013 56.000,283.725 56.000 C 283.436 56.000,283.200 55.820,283.200 55.600 C 283.200 55.380,282.840 55.200,282.400 55.200 C 281.960 55.200,281.600 55.020,281.600 54.800 C 281.600 54.580,281.322 54.400,280.983 54.400 C 280.644 54.400,279.980 54.040,279.508 53.600 C 279.036 53.160,278.413 52.800,278.125 52.800 C 277.836 52.800,277.600 52.620,277.600 52.400 C 277.600 52.180,277.240 52.000,276.800 52.000 C 276.360 52.000,276.000 51.820,276.000 51.600 C 276.000 51.380,275.655 51.200,275.233 51.200 C 274.812 51.200,274.407 51.064,274.333 50.898 C 274.260 50.732,272.940 49.993,271.400 49.256 C 269.860 48.519,268.287 47.755,267.905 47.558 C 267.523 47.361,266.938 47.200,266.605 47.200 C 266.272 47.200,266.000 47.020,266.000 46.800 C 266.000 46.580,265.640 46.400,265.200 46.400 C 264.760 46.400,264.400 46.253,264.400 46.072 C 264.400 45.892,263.500 45.500,262.400 45.200 C 261.300 44.900,260.400 44.508,260.400 44.328 C 260.400 44.147,260.038 44.000,259.595 44.000 C 259.152 44.000,258.477 43.841,258.095 43.647 C 256.002 42.582,251.669 41.200,250.425 41.200 C 249.971 41.200,249.600 41.020,249.600 40.800 C 249.600 40.580,249.060 40.400,248.400 40.400 C 247.740 40.400,247.200 40.220,247.200 40.000 C 247.200 39.780,246.480 39.600,245.600 39.600 C 244.720 39.600,244.000 39.420,244.000 39.200 C 244.000 38.980,243.471 38.800,242.824 38.800 C 242.177 38.800,241.536 38.620,241.400 38.400 C 241.264 38.180,240.544 38.000,239.800 38.000 C 239.056 38.000,238.336 37.820,238.200 37.600 C 238.064 37.380,237.243 37.200,236.376 37.200 C 235.509 37.200,234.800 37.020,234.800 36.800 C 234.800 36.580,233.900 36.400,232.800 36.400 C 231.700 36.400,230.800 36.220,230.800 36.000 C 230.800 35.778,229.733 35.600,228.400 35.600 C 227.067 35.600,226.000 35.422,226.000 35.200 C 226.000 34.974,224.867 34.800,223.400 34.800 C 221.933 34.800,220.800 34.626,220.800 34.400 C 220.800 34.163,219.341 34.000,217.224 34.000 C 215.257 34.000,213.536 33.820,213.400 33.600 C 213.264 33.380,211.903 33.200,210.376 33.200 L 207.600 33.200 207.600 53.950 "
            stroke="none" fill-rule="evenodd"></path>
        <path id="path2" fill="#ff1f56"
            d="M33.200 210.600 C 33.200 212.333,33.369 213.600,33.600 213.600 C 33.837 213.600,34.000 215.059,34.000 217.176 C 34.000 219.143,34.180 220.864,34.400 221.000 C 34.620 221.136,34.800 222.317,34.800 223.624 C 34.800 224.941,34.978 226.000,35.200 226.000 C 35.422 226.000,35.600 227.067,35.600 228.400 C 35.600 229.733,35.778 230.800,36.000 230.800 C 36.220 230.800,36.400 231.700,36.400 232.800 C 36.400 233.900,36.580 234.800,36.800 234.800 C 37.020 234.800,37.200 235.509,37.200 236.376 C 37.200 237.243,37.380 238.064,37.600 238.200 C 37.820 238.336,38.000 238.966,38.000 239.600 C 38.000 240.234,38.180 240.864,38.400 241.000 C 38.620 241.136,38.800 241.867,38.800 242.624 C 38.800 243.381,38.980 244.000,39.200 244.000 C 39.420 244.000,39.600 244.619,39.600 245.376 C 39.600 246.133,39.780 246.864,40.000 247.000 C 40.220 247.136,40.400 247.777,40.400 248.424 C 40.400 249.071,40.580 249.600,40.800 249.600 C 41.020 249.600,41.200 250.052,41.200 250.605 C 41.200 251.158,41.358 251.923,41.550 252.305 C 41.743 252.687,42.225 254.080,42.621 255.400 C 43.017 256.720,43.490 257.971,43.671 258.180 C 43.852 258.389,44.000 258.974,44.000 259.480 C 44.000 259.986,44.180 260.400,44.400 260.400 C 44.620 260.400,44.800 260.749,44.800 261.176 C 44.800 261.603,44.980 262.064,45.200 262.200 C 45.420 262.336,45.600 262.887,45.600 263.424 C 45.600 263.961,45.780 264.400,46.000 264.400 C 46.220 264.400,46.400 264.760,46.400 265.200 C 46.400 265.640,46.580 266.000,46.800 266.000 C 47.020 266.000,47.200 266.360,47.200 266.800 C 47.200 267.240,47.380 267.600,47.600 267.600 C 47.820 267.600,48.000 267.943,48.000 268.362 C 48.000 269.178,49.601 272.512,50.100 272.733 C 50.265 272.807,50.400 273.212,50.400 273.633 C 50.400 274.055,50.580 274.400,50.800 274.400 C 51.020 274.400,51.200 274.760,51.200 275.200 C 51.200 275.640,51.380 276.000,51.600 276.000 C 51.820 276.000,52.000 276.320,52.000 276.712 C 52.000 277.103,52.360 277.683,52.800 278.000 C 53.240 278.317,53.600 278.897,53.600 279.288 C 53.600 279.680,53.780 280.000,54.000 280.000 C 54.220 280.000,54.400 280.360,54.400 280.800 C 54.400 281.240,54.580 281.600,54.800 281.600 C 55.020 281.600,55.200 281.878,55.200 282.217 C 55.200 282.556,55.560 283.220,56.000 283.692 C 56.440 284.164,56.800 284.787,56.800 285.075 C 56.800 285.364,56.980 285.600,57.200 285.600 C 57.420 285.600,57.600 285.960,57.600 286.400 C 57.600 286.840,57.747 287.200,57.926 287.200 C 58.105 287.200,58.554 287.785,58.923 288.500 C 59.791 290.179,60.433 291.166,61.300 292.154 C 61.685 292.592,62.000 293.147,62.000 293.387 C 62.000 293.627,62.360 294.083,62.800 294.400 C 63.240 294.717,63.600 295.209,63.600 295.492 C 63.600 295.775,64.140 296.572,64.800 297.263 C 65.460 297.954,66.000 298.690,66.000 298.899 C 66.000 299.108,66.540 299.783,67.200 300.400 C 67.860 301.017,68.400 301.697,68.400 301.912 C 68.400 302.127,69.120 303.045,70.000 303.952 C 70.880 304.859,71.600 305.702,71.600 305.827 C 71.600 306.115,75.876 310.400,76.163 310.400 C 76.660 310.400,83.736 303.516,92.667 294.344 C 94.244 292.725,97.698 289.330,100.343 286.800 C 104.819 282.518,106.502 280.000,104.886 280.000 C 104.714 280.000,104.271 279.505,103.903 278.900 C 103.535 278.295,102.597 277.137,101.817 276.327 C 101.038 275.516,100.400 274.750,100.400 274.623 C 100.400 274.496,99.860 273.828,99.200 273.137 C 98.540 272.446,98.000 271.678,98.000 271.429 C 98.000 271.180,97.640 270.717,97.200 270.400 C 96.760 270.083,96.400 269.543,96.400 269.200 C 96.400 268.857,96.040 268.317,95.600 268.000 C 95.160 267.683,94.800 267.143,94.800 266.800 C 94.800 266.457,94.440 265.917,94.000 265.600 C 93.560 265.283,93.200 264.718,93.200 264.345 C 93.200 263.972,93.063 263.607,92.896 263.533 C 92.729 263.460,92.070 262.410,91.432 261.200 C 87.977 254.654,86.400 251.442,86.400 250.950 C 86.400 250.647,86.220 250.400,86.000 250.400 C 85.780 250.400,85.600 250.040,85.600 249.600 C 85.600 249.160,85.420 248.800,85.200 248.800 C 84.980 248.800,84.800 248.440,84.800 248.000 C 84.800 247.560,84.620 247.200,84.400 247.200 C 84.180 247.200,84.000 246.761,84.000 246.224 C 84.000 245.687,83.820 245.136,83.600 245.000 C 83.380 244.864,83.200 244.403,83.200 243.976 C 83.200 243.549,83.020 243.200,82.800 243.200 C 82.580 243.200,82.400 242.750,82.400 242.200 C 82.400 241.650,82.220 241.200,82.000 241.200 C 81.780 241.200,81.600 240.660,81.600 240.000 C 81.600 239.340,81.420 238.800,81.200 238.800 C 80.980 238.800,80.800 238.260,80.800 237.600 C 80.800 236.940,80.620 236.400,80.400 236.400 C 80.180 236.400,80.000 235.860,80.000 235.200 C 80.000 234.540,79.820 234.000,79.600 234.000 C 79.380 234.000,79.200 233.381,79.200 232.624 C 79.200 231.867,79.020 231.136,78.800 231.000 C 78.580 230.864,78.400 230.234,78.400 229.600 C 78.400 228.966,78.220 228.336,78.000 228.200 C 77.780 228.064,77.600 227.243,77.600 226.376 C 77.600 225.509,77.420 224.800,77.200 224.800 C 76.980 224.800,76.800 223.900,76.800 222.800 C 76.800 221.700,76.620 220.800,76.400 220.800 C 76.178 220.800,76.000 219.733,76.000 218.400 C 76.000 217.067,75.822 216.000,75.600 216.000 C 75.366 216.000,75.198 214.630,75.195 212.700 C 75.192 210.885,75.081 208.995,74.948 208.500 L 74.707 207.600 53.953 207.600 L 33.200 207.600 33.200 210.600 M286.833 287.567 C 286.412 287.988,285.962 288.228,285.833 288.100 C 285.705 287.972,285.600 288.156,285.600 288.511 C 285.600 288.865,285.070 289.468,284.422 289.851 C 283.774 290.234,283.334 290.694,283.445 290.873 C 283.556 291.053,283.444 291.200,283.195 291.200 C 282.946 291.200,282.506 291.425,282.216 291.700 C 281.926 291.975,281.180 292.560,280.559 293.000 C 279.938 293.440,278.801 294.385,278.032 295.100 C 277.263 295.815,276.480 296.400,276.293 296.400 C 276.106 296.400,276.064 296.580,276.200 296.800 C 276.336 297.020,276.149 297.200,275.784 297.200 C 275.419 297.200,274.617 297.740,274.000 298.400 C 273.383 299.060,272.680 299.600,272.436 299.600 C 272.192 299.600,271.428 300.140,270.737 300.800 C 270.046 301.460,269.321 302.000,269.124 302.000 C 268.927 302.000,268.380 302.360,267.908 302.800 C 267.436 303.240,266.813 303.600,266.525 303.600 C 266.236 303.600,266.000 303.780,266.000 304.000 C 266.000 304.220,265.764 304.400,265.475 304.400 C 265.187 304.400,264.564 304.760,264.092 305.200 C 263.620 305.640,262.956 306.000,262.617 306.000 C 262.278 306.000,262.000 306.180,262.000 306.400 C 262.000 306.620,261.730 306.800,261.400 306.800 C 261.070 306.800,260.800 306.980,260.800 307.200 C 260.800 307.420,260.530 307.600,260.200 307.600 C 259.870 307.600,259.600 307.766,259.600 307.968 C 259.600 308.171,259.062 308.455,258.405 308.599 C 257.747 308.743,257.106 309.028,256.981 309.231 C 256.855 309.434,256.403 309.600,255.976 309.600 C 255.549 309.600,255.200 309.780,255.200 310.000 C 255.200 310.220,254.840 310.400,254.400 310.400 C 253.960 310.400,253.600 310.580,253.600 310.800 C 253.600 311.020,253.240 311.200,252.800 311.200 C 252.360 311.200,252.000 311.380,252.000 311.600 C 252.000 311.820,251.640 312.000,251.200 312.000 C 250.760 312.000,250.400 312.180,250.400 312.400 C 250.400 312.620,250.040 312.800,249.600 312.800 C 249.160 312.800,248.800 312.980,248.800 313.200 C 248.800 313.420,248.361 313.600,247.824 313.600 C 247.287 313.600,246.736 313.780,246.600 314.000 C 246.464 314.220,246.003 314.400,245.576 314.400 C 245.149 314.400,244.800 314.580,244.800 314.800 C 244.800 315.020,244.350 315.200,243.800 315.200 C 243.250 315.200,242.800 315.347,242.800 315.528 C 242.800 315.708,241.900 316.100,240.800 316.400 C 239.700 316.700,238.800 317.092,238.800 317.272 C 238.800 317.453,238.260 317.600,237.600 317.600 C 236.940 317.600,236.400 317.780,236.400 318.000 C 236.400 318.220,235.680 318.400,234.800 318.400 C 233.920 318.400,233.200 318.580,233.200 318.800 C 233.200 319.020,232.660 319.200,232.000 319.200 C 231.340 319.200,230.800 319.380,230.800 319.600 C 230.800 319.820,230.080 320.000,229.200 320.000 C 228.320 320.000,227.600 320.180,227.600 320.400 C 227.600 320.620,226.790 320.800,225.800 320.800 C 224.810 320.800,224.000 320.980,224.000 321.200 C 224.000 321.420,223.100 321.600,222.000 321.600 C 220.900 321.600,220.000 321.780,220.000 322.000 C 220.000 322.225,218.875 322.400,217.424 322.400 C 216.007 322.400,214.736 322.580,214.600 322.800 C 214.464 323.020,212.833 323.200,210.976 323.200 L 207.600 323.200 207.600 344.200 L 207.600 365.200 209.400 365.200 C 210.390 365.200,211.200 365.020,211.200 364.800 C 211.200 364.559,212.867 364.400,215.400 364.400 C 217.933 364.400,219.600 364.241,219.600 364.000 C 219.600 363.771,220.800 363.600,222.400 363.600 C 224.000 363.600,225.200 363.429,225.200 363.200 C 225.200 362.978,226.267 362.800,227.600 362.800 C 228.933 362.800,230.000 362.622,230.000 362.400 C 230.000 362.180,230.900 362.000,232.000 362.000 C 233.100 362.000,234.000 361.820,234.000 361.600 C 234.000 361.380,234.720 361.200,235.600 361.200 C 236.480 361.200,237.200 361.020,237.200 360.800 C 237.200 360.580,238.010 360.400,239.000 360.400 C 239.990 360.400,240.800 360.220,240.800 360.000 C 240.800 359.780,241.340 359.600,242.000 359.600 C 242.660 359.600,243.200 359.446,243.200 359.257 C 243.200 359.068,244.317 358.797,245.682 358.654 C 247.048 358.512,248.344 358.216,248.562 357.998 C 248.781 357.779,249.363 357.600,249.856 357.600 C 250.349 357.600,250.864 357.420,251.000 357.200 C 251.136 356.980,251.676 356.800,252.200 356.800 C 252.724 356.800,253.264 356.620,253.400 356.400 C 253.536 356.180,254.076 356.000,254.600 356.000 C 255.124 356.000,255.664 355.820,255.800 355.600 C 255.936 355.380,256.487 355.200,257.024 355.200 C 257.561 355.200,258.000 355.020,258.000 354.800 C 258.000 354.580,258.349 354.400,258.776 354.400 C 259.203 354.400,259.664 354.220,259.800 354.000 C 259.936 353.780,260.487 353.600,261.024 353.600 C 261.561 353.600,262.000 353.420,262.000 353.200 C 262.000 352.980,262.360 352.800,262.800 352.800 C 263.240 352.800,263.600 352.620,263.600 352.400 C 263.600 352.180,264.140 352.000,264.800 352.000 C 265.460 352.000,266.000 351.820,266.000 351.600 C 266.000 351.380,266.360 351.200,266.800 351.200 C 267.240 351.200,267.600 351.020,267.600 350.800 C 267.600 350.580,267.960 350.400,268.400 350.400 C 268.840 350.400,269.200 350.220,269.200 350.000 C 269.200 349.780,269.560 349.600,270.000 349.600 C 270.440 349.600,270.800 349.420,270.800 349.200 C 270.800 348.980,271.160 348.800,271.600 348.800 C 272.040 348.800,272.400 348.620,272.400 348.400 C 272.400 348.180,272.760 348.000,273.200 348.000 C 273.640 348.000,274.000 347.820,274.000 347.600 C 274.000 347.380,274.270 347.200,274.600 347.200 C 274.930 347.200,275.200 347.020,275.200 346.800 C 275.200 346.580,275.560 346.400,276.000 346.400 C 276.440 346.400,276.800 346.220,276.800 346.000 C 276.800 345.780,277.160 345.600,277.600 345.600 C 278.040 345.600,278.400 345.420,278.400 345.200 C 278.400 344.980,278.760 344.800,279.200 344.800 C 279.640 344.800,280.000 344.620,280.000 344.400 C 280.000 344.180,280.278 344.000,280.617 344.000 C 280.956 344.000,281.620 343.640,282.092 343.200 C 282.564 342.760,283.187 342.400,283.475 342.400 C 283.764 342.400,284.000 342.220,284.000 342.000 C 284.000 341.780,284.347 341.600,284.771 341.600 C 285.196 341.600,285.813 341.330,286.143 341.000 C 286.473 340.670,286.858 340.400,286.999 340.400 C 287.140 340.400,288.041 339.860,289.000 339.200 C 289.959 338.540,290.871 338.000,291.025 338.000 C 291.180 338.000,291.597 337.684,291.953 337.297 C 292.309 336.911,293.095 336.340,293.700 336.030 C 294.305 335.719,294.800 335.315,294.800 335.132 C 294.800 334.950,295.043 334.800,295.341 334.800 C 295.638 334.800,296.446 334.260,297.137 333.600 C 297.828 332.940,298.548 332.400,298.737 332.400 C 298.926 332.400,299.646 331.860,300.337 331.200 C 301.028 330.540,301.774 330.000,301.996 330.000 C 302.218 330.000,302.400 329.820,302.400 329.600 C 302.400 329.380,302.566 329.200,302.769 329.200 C 302.972 329.200,303.844 328.480,304.707 327.600 C 305.569 326.720,306.401 326.000,306.556 326.000 C 306.710 326.000,307.263 325.595,307.784 325.100 C 308.306 324.605,310.005 323.030,311.561 321.600 C 313.116 320.170,314.391 318.764,314.394 318.476 C 314.397 318.188,314.568 318.056,314.772 318.183 C 315.203 318.449,315.725 317.734,315.894 316.646 C 315.997 315.984,315.929 315.960,315.331 316.446 C 314.739 316.928,314.682 316.916,314.890 316.360 C 315.179 315.586,287.554 287.816,286.974 288.297 C 286.773 288.464,286.950 288.195,287.366 287.700 C 288.290 286.603,287.896 286.504,286.833 287.567 M112.400 297.234 C 110.310 299.421,106.935 302.874,104.899 304.906 C 85.665 324.107,87.158 322.286,89.237 324.000 C 89.904 324.550,90.881 325.405,91.407 325.900 C 91.933 326.395,92.480 326.800,92.621 326.800 C 92.763 326.800,93.383 327.340,94.000 328.000 C 94.617 328.660,95.319 329.200,95.560 329.200 C 95.802 329.200,96.000 329.380,96.000 329.600 C 96.000 329.820,96.198 330.000,96.440 330.000 C 96.681 330.000,97.383 330.540,98.000 331.200 C 98.617 331.860,99.320 332.400,99.564 332.400 C 99.808 332.400,100.572 332.940,101.263 333.600 C 101.954 334.260,102.722 334.800,102.971 334.800 C 103.220 334.800,103.683 335.160,104.000 335.600 C 104.317 336.040,104.857 336.400,105.200 336.400 C 105.543 336.400,106.083 336.760,106.400 337.200 C 106.717 337.640,107.257 338.000,107.600 338.000 C 107.943 338.000,108.483 338.360,108.800 338.800 C 109.117 339.240,109.520 339.600,109.696 339.600 C 109.872 339.600,110.729 340.050,111.600 340.600 C 112.471 341.150,113.418 341.600,113.704 341.600 C 113.990 341.600,114.483 341.960,114.800 342.400 C 115.117 342.840,115.697 343.200,116.088 343.200 C 116.480 343.200,116.800 343.380,116.800 343.600 C 116.800 343.820,117.160 344.000,117.600 344.000 C 118.040 344.000,118.400 344.180,118.400 344.400 C 118.400 344.620,118.760 344.800,119.200 344.800 C 119.640 344.800,120.001 344.935,120.003 345.100 C 120.005 345.265,120.410 345.601,120.903 345.846 C 121.396 346.091,123.220 347.036,124.955 347.946 C 126.691 348.856,128.356 349.600,128.655 349.600 C 128.955 349.600,129.200 349.780,129.200 350.000 C 129.200 350.220,129.560 350.400,130.000 350.400 C 130.440 350.400,130.800 350.580,130.800 350.800 C 130.800 351.020,131.160 351.200,131.600 351.200 C 132.040 351.200,132.400 351.380,132.400 351.600 C 132.400 351.820,132.749 352.000,133.176 352.000 C 133.603 352.000,134.064 352.180,134.200 352.400 C 134.336 352.620,134.887 352.800,135.424 352.800 C 135.961 352.800,136.400 352.980,136.400 353.200 C 136.400 353.420,136.749 353.600,137.176 353.600 C 137.603 353.600,138.064 353.780,138.200 354.000 C 138.336 354.220,138.887 354.400,139.424 354.400 C 139.961 354.400,140.400 354.580,140.400 354.800 C 140.400 355.020,140.814 355.200,141.320 355.200 C 141.826 355.200,142.411 355.348,142.620 355.528 C 142.829 355.708,144.350 356.267,146.000 356.769 C 147.650 357.271,149.299 357.835,149.665 358.023 C 150.031 358.210,151.246 358.485,152.365 358.633 C 153.484 358.782,154.400 359.060,154.400 359.252 C 154.400 359.443,155.120 359.600,156.000 359.600 C 156.880 359.600,157.600 359.780,157.600 360.000 C 157.600 360.220,158.219 360.400,158.976 360.400 C 159.733 360.400,160.464 360.580,160.600 360.800 C 160.736 361.020,161.647 361.200,162.624 361.200 C 163.601 361.200,164.400 361.380,164.400 361.600 C 164.400 361.820,165.300 362.000,166.400 362.000 C 167.500 362.000,168.400 362.180,168.400 362.400 C 168.400 362.622,169.467 362.800,170.800 362.800 C 172.133 362.800,173.200 362.978,173.200 363.200 C 173.200 363.425,174.325 363.600,175.776 363.600 C 177.193 363.600,178.464 363.780,178.600 364.000 C 178.739 364.225,180.671 364.400,183.024 364.400 C 185.686 364.400,187.200 364.553,187.200 364.822 C 187.200 365.076,187.957 365.195,189.100 365.122 L 191.000 365.000 191.111 345.000 C 191.246 320.668,191.724 323.200,186.992 323.200 C 184.731 323.200,183.200 323.039,183.200 322.800 C 183.200 322.578,182.133 322.400,180.800 322.400 C 179.467 322.400,178.400 322.222,178.400 322.000 C 178.400 321.780,177.511 321.600,176.424 321.600 C 175.337 321.600,174.336 321.420,174.200 321.200 C 174.064 320.980,173.243 320.800,172.376 320.800 C 171.509 320.800,170.800 320.620,170.800 320.400 C 170.800 320.180,170.080 320.000,169.200 320.000 C 168.320 320.000,167.600 319.820,167.600 319.600 C 167.600 319.380,166.981 319.200,166.224 319.200 C 165.467 319.200,164.736 319.020,164.600 318.800 C 164.464 318.580,163.823 318.400,163.176 318.400 C 162.529 318.400,162.000 318.220,162.000 318.000 C 162.000 317.780,161.460 317.600,160.800 317.600 C 160.140 317.600,159.600 317.420,159.600 317.200 C 159.600 316.980,159.238 316.800,158.795 316.800 C 158.352 316.800,157.632 316.620,157.195 316.400 C 156.758 316.180,156.042 315.820,155.605 315.600 C 155.168 315.380,154.538 315.200,154.205 315.200 C 153.872 315.200,153.600 315.020,153.600 314.800 C 153.600 314.580,153.161 314.400,152.624 314.400 C 152.087 314.400,151.536 314.220,151.400 314.000 C 151.264 313.780,150.803 313.600,150.376 313.600 C 149.949 313.600,149.600 313.420,149.600 313.200 C 149.600 312.980,149.240 312.800,148.800 312.800 C 148.360 312.800,148.000 312.620,148.000 312.400 C 148.000 312.180,147.757 312.000,147.460 312.000 C 147.163 312.000,145.318 311.193,143.360 310.206 C 141.402 309.219,139.575 308.409,139.300 308.406 C 139.025 308.403,138.800 308.220,138.800 308.000 C 138.800 307.780,138.480 307.600,138.088 307.600 C 137.697 307.600,137.117 307.240,136.800 306.800 C 136.483 306.360,135.903 306.000,135.512 306.000 C 135.120 306.000,134.800 305.820,134.800 305.600 C 134.800 305.380,134.480 305.200,134.088 305.200 C 133.697 305.200,133.117 304.840,132.800 304.400 C 132.483 303.960,131.943 303.600,131.600 303.600 C 131.257 303.600,130.717 303.240,130.400 302.800 C 130.083 302.360,129.543 302.000,129.200 302.000 C 128.857 302.000,128.317 301.640,128.000 301.200 C 127.683 300.760,127.228 300.400,126.990 300.400 C 126.751 300.400,125.908 299.815,125.115 299.100 C 123.394 297.548,122.764 297.026,120.400 295.194 C 119.410 294.428,118.540 293.665,118.467 293.500 C 117.925 292.281,116.000 293.465,112.400 297.234 "
            stroke="none" fill-rule="evenodd"></path>
    </g>
</svg>